<svg xmlns="http://www.w3.org/2000/svg" viewBox="0 0 700 300"><rect width="700" height="300" fill="white"/><g transform="translate(255 15)"><circle cx="120" cy="52" r="45" fill="#f7941d"/><path d="M35 245C75 170 135 105 235 75 165 125 115 190 82 252" fill="none" stroke="#1487c9" stroke-width="14" stroke-linecap="round"/><path d="M95 175C72 135 77 78 118 38M100 120C65 97 45 101 20 111M120 95C116 66 98 43 75 25" fill="none" stroke="#1487c9" stroke-width="10" stroke-linecap="round"/><path d="M175 110l105-35-37 32 36 12-104 15 32-16z" fill="#1487c9"/><path d="M75 258h125" stroke="#1487c9" stroke-width="8" stroke-linecap="round"/></g><text x="350" y="292" text-anchor="middle" font-family="Arial,sans-serif" font-size="34" font-weight="800" fill="#1487c9">Bangladesh Tours &amp; Travel</text></svg>